<svg id="visual" viewBox="0 0 1920 1080" width="1920" height="1080" xmlns="http://www.w3.org/2000/svg" xmlns:xlink="http://www.w3.org/1999/xlink" version="1.1"><path d="M0 87L13.8 81.7C27.7 76.3 55.3 65.7 83.2 64C111 62.3 139 69.7 166.8 69.7C194.7 69.7 222.3 62.3 250.2 58.7C278 55 306 55 333.8 53.2C361.7 51.3 389.3 47.7 417.2 45.8C445 44 473 44 500.8 44C528.7 44 556.3 44 584.2 47.7C612 51.3 640 58.7 667.8 62.3C695.7 66 723.3 66 751.2 71.3C779 76.7 807 87.3 834.8 92.7C862.7 98 890.3 98 918.2 92.7C946 87.3 974 76.7 1001.8 71.3C1029.7 66 1057.3 66 1085.2 66C1113 66 1141 66 1168.8 69.5C1196.7 73 1224.3 80 1252.2 80C1280 80 1308 73 1335.8 65.8C1363.7 58.7 1391.3 51.3 1419.2 49.5C1447 47.7 1475 51.3 1502.8 60.3C1530.7 69.3 1558.3 83.7 1586.2 90.8C1614 98 1642 98 1669.8 92.7C1697.7 87.3 1725.3 76.7 1753.2 73.2C1781 69.7 1809 73.3 1836.8 75.2C1864.7 77 1892.3 77 1906.2 77L1920 77L1920 0L1906.2 0C1892.3 0 1864.7 0 1836.8 0C1809 0 1781 0 1753.2 0C1725.3 0 1697.7 0 1669.8 0C1642 0 1614 0 1586.2 0C1558.3 0 1530.7 0 1502.8 0C1475 0 1447 0 1419.2 0C1391.3 0 1363.7 0 1335.8 0C1308 0 1280 0 1252.2 0C1224.3 0 1196.7 0 1168.8 0C1141 0 1113 0 1085.2 0C1057.3 0 1029.7 0 1001.8 0C974 0 946 0 918.2 0C890.3 0 862.7 0 834.8 0C807 0 779 0 751.2 0C723.3 0 695.7 0 667.8 0C640 0 612 0 584.2 0C556.3 0 528.7 0 500.8 0C473 0 445 0 417.2 0C389.3 0 361.7 0 333.8 0C306 0 278 0 250.2 0C222.3 0 194.7 0 166.8 0C139 0 111 0 83.2 0C55.3 0 27.7 0 13.8 0L0 0Z" fill="#a1cfe0"></path><path d="M0 131L13.8 125.5C27.7 120 55.3 109 83.2 112.5C111 116 139 134 166.8 134C194.7 134 222.3 116 250.2 108.8C278 101.7 306 105.3 333.8 109C361.7 112.7 389.3 116.3 417.2 118.2C445 120 473 120 500.8 121.8C528.7 123.7 556.3 127.3 584.2 130.8C612 134.3 640 137.7 667.8 141.2C695.7 144.7 723.3 148.3 751.2 146.7C779 145 807 138 834.8 134.5C862.7 131 890.3 131 918.2 125.5C946 120 974 109 1001.8 107.2C1029.7 105.3 1057.3 112.7 1085.2 119.8C1113 127 1141 134 1168.8 139.3C1196.7 144.7 1224.3 148.3 1252.2 144.8C1280 141.3 1308 130.7 1335.8 127.2C1363.7 123.7 1391.3 127.3 1419.2 130.8C1447 134.3 1475 137.7 1502.8 139.3C1530.7 141 1558.3 141 1586.2 142.8C1614 144.7 1642 148.3 1669.8 144.8C1697.7 141.3 1725.3 130.7 1753.2 132.5C1781 134.3 1809 148.7 1836.8 155.8C1864.7 163 1892.3 163 1906.2 163L1920 163L1920 75L1906.2 75C1892.3 75 1864.7 75 1836.8 73.2C1809 71.3 1781 67.7 1753.2 71.2C1725.3 74.7 1697.7 85.3 1669.8 90.7C1642 96 1614 96 1586.2 88.8C1558.3 81.7 1530.7 67.3 1502.8 58.3C1475 49.3 1447 45.7 1419.2 47.5C1391.3 49.3 1363.7 56.7 1335.8 63.8C1308 71 1280 78 1252.2 78C1224.3 78 1196.7 71 1168.8 67.5C1141 64 1113 64 1085.2 64C1057.3 64 1029.7 64 1001.8 69.3C974 74.7 946 85.3 918.2 90.7C890.3 96 862.7 96 834.8 90.7C807 85.3 779 74.7 751.2 69.3C723.3 64 695.7 64 667.8 60.3C640 56.7 612 49.3 584.2 45.7C556.3 42 528.7 42 500.8 42C473 42 445 42 417.2 43.8C389.3 45.7 361.7 49.3 333.8 51.2C306 53 278 53 250.2 56.7C222.3 60.3 194.7 67.7 166.8 67.7C139 67.7 111 60.3 83.2 62C55.3 63.7 27.7 74.3 13.8 79.7L0 85Z" fill="#aad3e3"></path><path d="M0 152L13.8 148.5C27.7 145 55.3 138 83.2 143.5C111 149 139 167 166.8 167C194.7 167 222.3 149 250.2 145.3C278 141.7 306 152.3 333.8 159.5C361.7 166.7 389.3 170.3 417.2 168.5C445 166.7 473 159.3 500.8 159.3C528.7 159.3 556.3 166.7 584.2 172.2C612 177.7 640 181.3 667.8 184.8C695.7 188.3 723.3 191.7 751.2 191.7C779 191.7 807 188.3 834.8 186.7C862.7 185 890.3 185 918.2 177.7C946 170.3 974 155.7 1001.8 152C1029.7 148.3 1057.3 155.7 1085.2 164.7C1113 173.7 1141 184.3 1168.8 186.2C1196.7 188 1224.3 181 1252.2 175.7C1280 170.3 1308 166.7 1335.8 168.5C1363.7 170.3 1391.3 177.7 1419.2 177.7C1447 177.7 1475 170.3 1502.8 172C1530.7 173.7 1558.3 184.3 1586.2 191.5C1614 198.7 1642 202.3 1669.8 195.2C1697.7 188 1725.3 170 1753.2 166.5C1781 163 1809 174 1836.8 179.5C1864.7 185 1892.3 185 1906.2 185L1920 185L1920 161L1906.2 161C1892.3 161 1864.7 161 1836.8 153.8C1809 146.7 1781 132.3 1753.2 130.5C1725.3 128.7 1697.7 139.3 1669.8 142.8C1642 146.3 1614 142.7 1586.2 140.8C1558.3 139 1530.7 139 1502.8 137.3C1475 135.7 1447 132.3 1419.2 128.8C1391.3 125.3 1363.7 121.7 1335.8 125.2C1308 128.7 1280 139.3 1252.2 142.8C1224.3 146.3 1196.7 142.7 1168.8 137.3C1141 132 1113 125 1085.2 117.8C1057.3 110.7 1029.7 103.3 1001.8 105.2C974 107 946 118 918.2 123.5C890.3 129 862.7 129 834.8 132.5C807 136 779 143 751.2 144.7C723.3 146.3 695.7 142.7 667.8 139.2C640 135.7 612 132.3 584.2 128.8C556.3 125.3 528.7 121.7 500.8 119.8C473 118 445 118 417.2 116.2C389.3 114.3 361.7 110.7 333.8 107C306 103.3 278 99.7 250.2 106.8C222.3 114 194.7 132 166.8 132C139 132 111 114 83.2 110.5C55.3 107 27.7 118 13.8 123.5L0 129Z" fill="#b3d8e5"></path><path d="M0 195L13.8 200.5C27.7 206 55.3 217 83.2 227.8C111 238.7 139 249.3 166.8 245.7C194.7 242 222.3 224 250.2 222.2C278 220.3 306 234.7 333.8 245.5C361.7 256.3 389.3 263.7 417.2 260.2C445 256.7 473 242.3 500.8 238.7C528.7 235 556.3 242 584.2 245.5C612 249 640 249 667.8 249C695.7 249 723.3 249 751.2 247.3C779 245.7 807 242.3 834.8 244.2C862.7 246 890.3 253 918.2 245.7C946 238.3 974 216.7 1001.8 207.7C1029.7 198.7 1057.3 202.3 1085.2 209.7C1113 217 1141 228 1168.8 229.8C1196.7 231.7 1224.3 224.3 1252.2 220.7C1280 217 1308 217 1335.8 226C1363.7 235 1391.3 253 1419.2 253C1447 253 1475 235 1502.8 236.8C1530.7 238.7 1558.3 260.3 1586.2 265.7C1614 271 1642 260 1669.8 251C1697.7 242 1725.3 235 1753.2 231.5C1781 228 1809 228 1836.8 231.5C1864.7 235 1892.3 242 1906.2 245.5L1920 249L1920 183L1906.2 183C1892.3 183 1864.7 183 1836.8 177.5C1809 172 1781 161 1753.2 164.5C1725.3 168 1697.7 186 1669.8 193.2C1642 200.3 1614 196.7 1586.2 189.5C1558.3 182.3 1530.7 171.7 1502.8 170C1475 168.3 1447 175.7 1419.2 175.7C1391.3 175.7 1363.7 168.3 1335.8 166.5C1308 164.7 1280 168.3 1252.2 173.7C1224.3 179 1196.7 186 1168.8 184.2C1141 182.3 1113 171.7 1085.2 162.7C1057.3 153.7 1029.7 146.3 1001.8 150C974 153.7 946 168.3 918.2 175.7C890.3 183 862.7 183 834.8 184.7C807 186.3 779 189.7 751.2 189.7C723.3 189.7 695.7 186.3 667.8 182.8C640 179.3 612 175.7 584.2 170.2C556.3 164.7 528.7 157.3 500.8 157.3C473 157.3 445 164.7 417.2 166.5C389.3 168.3 361.7 164.7 333.8 157.5C306 150.3 278 139.7 250.2 143.3C222.3 147 194.7 165 166.8 165C139 165 111 147 83.2 141.5C55.3 136 27.7 143 13.8 146.5L0 150Z" fill="#bbdce8"></path><path d="M0 314L13.8 324.8C27.7 335.7 55.3 357.3 83.2 370C111 382.7 139 386.3 166.8 388.2C194.7 390 222.3 390 250.2 386.3C278 382.7 306 375.3 333.8 371.7C361.7 368 389.3 368 417.2 371.7C445 375.3 473 382.7 500.8 386.3C528.7 390 556.3 390 584.2 395.3C612 400.7 640 411.3 667.8 407.7C695.7 404 723.3 386 751.2 373.5C779 361 807 354 834.8 348.7C862.7 343.3 890.3 339.7 918.2 339.7C946 339.7 974 343.3 1001.8 350.5C1029.7 357.7 1057.3 368.3 1085.2 379C1113 389.7 1141 400.3 1168.8 400.3C1196.7 400.3 1224.3 389.7 1252.2 384.3C1280 379 1308 379 1335.8 382.7C1363.7 386.3 1391.3 393.7 1419.2 388.3C1447 383 1475 365 1502.8 359.5C1530.7 354 1558.3 361 1586.2 359.2C1614 357.3 1642 346.7 1669.8 343.2C1697.7 339.7 1725.3 343.3 1753.2 341.5C1781 339.7 1809 332.3 1836.8 332.3C1864.7 332.3 1892.3 339.7 1906.2 343.3L1920 347L1920 247L1906.2 243.5C1892.3 240 1864.7 233 1836.8 229.5C1809 226 1781 226 1753.2 229.5C1725.3 233 1697.7 240 1669.8 249C1642 258 1614 269 1586.2 263.7C1558.3 258.3 1530.7 236.7 1502.8 234.8C1475 233 1447 251 1419.2 251C1391.3 251 1363.7 233 1335.8 224C1308 215 1280 215 1252.2 218.7C1224.3 222.3 1196.7 229.7 1168.8 227.8C1141 226 1113 215 1085.2 207.7C1057.3 200.3 1029.7 196.7 1001.8 205.7C974 214.7 946 236.3 918.2 243.7C890.3 251 862.7 244 834.8 242.2C807 240.3 779 243.7 751.2 245.3C723.3 247 695.7 247 667.8 247C640 247 612 247 584.2 243.5C556.3 240 528.7 233 500.8 236.7C473 240.3 445 254.7 417.2 258.2C389.3 261.7 361.7 254.3 333.8 243.5C306 232.7 278 218.3 250.2 220.2C222.3 222 194.7 240 166.8 243.7C139 247.3 111 236.7 83.2 225.8C55.3 215 27.7 204 13.8 198.5L0 193Z" fill="#c4e0eb"></path><path d="M0 357L13.8 367.8C27.7 378.7 55.3 400.3 83.2 413C111 425.7 139 429.3 166.8 427.5C194.7 425.7 222.3 418.3 250.2 413C278 407.7 306 404.3 333.8 402.7C361.7 401 389.3 401 417.2 406.3C445 411.7 473 422.3 500.8 424C528.7 425.7 556.3 418.3 584.2 423.7C612 429 640 447 667.8 445.3C695.7 443.7 723.3 422.3 751.2 409.8C779 397.3 807 393.7 834.8 391.8C862.7 390 890.3 390 918.2 390C946 390 974 390 1001.8 393.5C1029.7 397 1057.3 404 1085.2 416.5C1113 429 1141 447 1168.8 450.7C1196.7 454.3 1224.3 443.7 1252.2 436.5C1280 429.3 1308 425.7 1335.8 425.7C1363.7 425.7 1391.3 429.3 1419.2 422.2C1447 415 1475 397 1502.8 391.7C1530.7 386.3 1558.3 393.7 1586.2 390C1614 386.3 1642 371.7 1669.8 371.7C1697.7 371.7 1725.3 386.3 1753.2 384.7C1781 383 1809 365 1836.8 363.2C1864.7 361.3 1892.3 375.7 1906.2 382.8L1920 390L1920 345L1906.2 341.3C1892.3 337.7 1864.7 330.3 1836.8 330.3C1809 330.3 1781 337.7 1753.2 339.5C1725.3 341.3 1697.7 337.7 1669.8 341.2C1642 344.7 1614 355.3 1586.2 357.2C1558.3 359 1530.7 352 1502.8 357.5C1475 363 1447 381 1419.2 386.3C1391.3 391.7 1363.7 384.3 1335.8 380.7C1308 377 1280 377 1252.2 382.3C1224.3 387.7 1196.7 398.3 1168.8 398.3C1141 398.3 1113 387.7 1085.2 377C1057.3 366.3 1029.7 355.7 1001.8 348.5C974 341.3 946 337.7 918.2 337.7C890.3 337.7 862.7 341.3 834.8 346.7C807 352 779 359 751.2 371.5C723.3 384 695.7 402 667.8 405.7C640 409.3 612 398.7 584.2 393.3C556.3 388 528.7 388 500.8 384.3C473 380.7 445 373.3 417.2 369.7C389.3 366 361.7 366 333.8 369.7C306 373.3 278 380.7 250.2 384.3C222.3 388 194.7 388 166.8 386.2C139 384.3 111 380.7 83.2 368C55.3 355.3 27.7 333.7 13.8 322.8L0 312Z" fill="#cde5ee"></path><path d="M0 444L13.8 458.3C27.7 472.7 55.3 501.3 83.2 512.2C111 523 139 516 166.8 514.2C194.7 512.3 222.3 515.7 250.2 508.3C278 501 306 483 333.8 477.7C361.7 472.3 389.3 479.7 417.2 488.7C445 497.7 473 508.3 500.8 515.5C528.7 522.7 556.3 526.3 584.2 528.2C612 530 640 530 667.8 530C695.7 530 723.3 530 751.2 515.7C779 501.3 807 472.7 834.8 461.8C862.7 451 890.3 458 918.2 465.2C946 472.3 974 479.7 1001.8 490.5C1029.7 501.3 1057.3 515.7 1085.2 528.3C1113 541 1141 552 1168.8 548.5C1196.7 545 1224.3 527 1252.2 519.7C1280 512.3 1308 515.7 1335.8 521C1363.7 526.3 1391.3 533.7 1419.2 521.2C1447 508.7 1475 476.3 1502.8 474.5C1530.7 472.7 1558.3 501.3 1586.2 497.7C1614 494 1642 458 1669.8 454.5C1697.7 451 1725.3 480 1753.2 483.7C1781 487.3 1809 465.7 1836.8 458.3C1864.7 451 1892.3 458 1906.2 461.5L1920 465L1920 388L1906.2 380.8C1892.3 373.7 1864.7 359.3 1836.8 361.2C1809 363 1781 381 1753.2 382.7C1725.3 384.3 1697.7 369.7 1669.8 369.7C1642 369.7 1614 384.3 1586.2 388C1558.3 391.7 1530.7 384.3 1502.8 389.7C1475 395 1447 413 1419.2 420.2C1391.3 427.3 1363.7 423.7 1335.8 423.7C1308 423.7 1280 427.3 1252.2 434.5C1224.3 441.7 1196.7 452.3 1168.8 448.7C1141 445 1113 427 1085.2 414.5C1057.3 402 1029.7 395 1001.8 391.5C974 388 946 388 918.2 388C890.3 388 862.7 388 834.8 389.8C807 391.7 779 395.3 751.2 407.8C723.3 420.3 695.7 441.7 667.8 443.3C640 445 612 427 584.2 421.7C556.3 416.3 528.7 423.7 500.8 422C473 420.3 445 409.7 417.2 404.3C389.3 399 361.7 399 333.8 400.7C306 402.3 278 405.7 250.2 411C222.3 416.3 194.7 423.7 166.8 425.5C139 427.3 111 423.7 83.2 411C55.3 398.3 27.7 376.7 13.8 365.8L0 355Z" fill="#d5e9f0"></path><path d="M0 476L13.8 492.2C27.7 508.3 55.3 540.7 83.2 551.5C111 562.3 139 551.7 166.8 555.3C194.7 559 222.3 577 250.2 573.3C278 569.7 306 544.3 333.8 531.7C361.7 519 389.3 519 417.2 531.7C445 544.3 473 569.7 500.8 584.2C528.7 598.7 556.3 602.3 584.2 597C612 591.7 640 577.3 667.8 575.5C695.7 573.7 723.3 584.3 751.2 577C779 569.7 807 544.3 834.8 531.7C862.7 519 890.3 519 918.2 522.7C946 526.3 974 533.7 1001.8 548.2C1029.7 562.7 1057.3 584.3 1085.2 595.2C1113 606 1141 606 1168.8 598.8C1196.7 591.7 1224.3 577.3 1252.2 575.5C1280 573.7 1308 584.3 1335.8 586C1363.7 587.7 1391.3 580.3 1419.2 566C1447 551.7 1475 530.3 1502.8 532.2C1530.7 534 1558.3 559 1586.2 553.5C1614 548 1642 512 1669.8 510.2C1697.7 508.3 1725.3 540.7 1753.2 542.5C1781 544.3 1809 515.7 1836.8 506.7C1864.7 497.7 1892.3 508.3 1906.2 513.7L1920 519L1920 463L1906.2 459.5C1892.3 456 1864.7 449 1836.8 456.3C1809 463.7 1781 485.3 1753.2 481.7C1725.3 478 1697.7 449 1669.8 452.5C1642 456 1614 492 1586.2 495.7C1558.3 499.3 1530.7 470.7 1502.8 472.5C1475 474.3 1447 506.7 1419.2 519.2C1391.3 531.7 1363.7 524.3 1335.8 519C1308 513.7 1280 510.3 1252.2 517.7C1224.3 525 1196.7 543 1168.8 546.5C1141 550 1113 539 1085.2 526.3C1057.3 513.7 1029.7 499.3 1001.8 488.5C974 477.7 946 470.3 918.2 463.2C890.3 456 862.7 449 834.8 459.8C807 470.7 779 499.3 751.2 513.7C723.3 528 695.7 528 667.8 528C640 528 612 528 584.2 526.2C556.3 524.3 528.7 520.7 500.8 513.5C473 506.3 445 495.7 417.2 486.7C389.3 477.7 361.7 470.3 333.8 475.7C306 481 278 499 250.2 506.3C222.3 513.7 194.7 510.3 166.8 512.2C139 514 111 521 83.2 510.2C55.3 499.3 27.7 470.7 13.8 456.3L0 442Z" fill="#deeef3"></path><path d="M0 519L13.8 535.3C27.7 551.7 55.3 584.3 83.2 595.2C111 606 139 595 166.8 598.5C194.7 602 222.3 620 250.2 620C278 620 306 602 333.8 589.5C361.7 577 389.3 570 417.2 582.7C445 595.3 473 627.7 500.8 642C528.7 656.3 556.3 652.7 584.2 647.2C612 641.7 640 634.3 667.8 634.3C695.7 634.3 723.3 641.7 751.2 629.2C779 616.7 807 584.3 834.8 573.5C862.7 562.7 890.3 573.3 918.2 580.5C946 587.7 974 591.3 1001.8 605.8C1029.7 620.3 1057.3 645.7 1085.2 652.8C1113 660 1141 649 1168.8 641.7C1196.7 634.3 1224.3 630.7 1252.2 628.8C1280 627 1308 627 1335.8 623.5C1363.7 620 1391.3 613 1419.2 602.3C1447 591.7 1475 577.3 1502.8 579.2C1530.7 581 1558.3 599 1586.2 595.3C1614 591.7 1642 566.3 1669.8 566.3C1697.7 566.3 1725.3 591.7 1753.2 593.5C1781 595.3 1809 573.7 1836.8 562.8C1864.7 552 1892.3 552 1906.2 552L1920 552L1920 517L1906.2 511.7C1892.3 506.3 1864.7 495.7 1836.8 504.7C1809 513.7 1781 542.3 1753.2 540.5C1725.3 538.7 1697.7 506.3 1669.8 508.2C1642 510 1614 546 1586.2 551.5C1558.3 557 1530.7 532 1502.8 530.2C1475 528.3 1447 549.7 1419.2 564C1391.3 578.3 1363.7 585.7 1335.8 584C1308 582.3 1280 571.7 1252.2 573.5C1224.3 575.3 1196.7 589.7 1168.8 596.8C1141 604 1113 604 1085.2 593.2C1057.3 582.3 1029.7 560.7 1001.8 546.2C974 531.7 946 524.3 918.2 520.7C890.3 517 862.7 517 834.8 529.7C807 542.3 779 567.7 751.2 575C723.3 582.3 695.7 571.7 667.8 573.5C640 575.3 612 589.7 584.2 595C556.3 600.3 528.7 596.7 500.8 582.2C473 567.7 445 542.3 417.2 529.7C389.3 517 361.7 517 333.8 529.7C306 542.3 278 567.7 250.2 571.3C222.3 575 194.7 557 166.8 553.3C139 549.7 111 560.3 83.2 549.5C55.3 538.7 27.7 506.3 13.8 490.2L0 474Z" fill="#e6f2f6"></path><path d="M0 833L13.8 816.7C27.7 800.3 55.3 767.7 83.2 771.2C111 774.7 139 814.3 166.8 839.7C194.7 865 222.3 876 250.2 872.5C278 869 306 851 333.8 838.3C361.7 825.7 389.3 818.3 417.2 827.3C445 836.3 473 861.7 500.8 865.3C528.7 869 556.3 851 584.2 851C612 851 640 869 667.8 874.3C695.7 879.7 723.3 872.3 751.2 857.8C779 843.3 807 821.7 834.8 821.7C862.7 821.7 890.3 843.3 918.2 829C946 814.7 974 764.3 1001.8 753.5C1029.7 742.7 1057.3 771.3 1085.2 776.7C1113 782 1141 764 1168.8 764C1196.7 764 1224.3 782 1252.2 787.5C1280 793 1308 786 1335.8 795C1363.7 804 1391.3 829 1419.2 836.2C1447 843.3 1475 832.7 1502.8 827.3C1530.7 822 1558.3 822 1586.2 805.8C1614 789.7 1642 757.3 1669.8 753.7C1697.7 750 1725.3 775 1753.2 784C1781 793 1809 786 1836.8 795C1864.7 804 1892.3 829 1906.2 841.5L1920 854L1920 550L1906.2 550C1892.3 550 1864.7 550 1836.8 560.8C1809 571.7 1781 593.3 1753.2 591.5C1725.3 589.7 1697.7 564.3 1669.8 564.3C1642 564.3 1614 589.7 1586.2 593.3C1558.3 597 1530.7 579 1502.8 577.2C1475 575.3 1447 589.7 1419.2 600.3C1391.3 611 1363.7 618 1335.8 621.5C1308 625 1280 625 1252.2 626.8C1224.3 628.7 1196.7 632.3 1168.8 639.7C1141 647 1113 658 1085.2 650.8C1057.3 643.7 1029.7 618.3 1001.8 603.8C974 589.3 946 585.7 918.2 578.5C890.3 571.3 862.7 560.7 834.8 571.5C807 582.3 779 614.7 751.2 627.2C723.3 639.7 695.7 632.3 667.8 632.3C640 632.3 612 639.7 584.2 645.2C556.3 650.7 528.7 654.3 500.8 640C473 625.7 445 593.3 417.2 580.7C389.3 568 361.7 575 333.8 587.5C306 600 278 618 250.2 618C222.3 618 194.7 600 166.8 596.5C139 593 111 604 83.2 593.2C55.3 582.3 27.7 549.7 13.8 533.3L0 517Z" fill="#eef6f9"></path><path d="M0 887L13.8 870.7C27.7 854.3 55.3 821.7 83.2 827C111 832.3 139 875.7 166.8 899.2C194.7 922.7 222.3 926.3 250.2 917.3C278 908.3 306 886.7 333.8 872.2C361.7 857.7 389.3 850.3 417.2 861.2C445 872 473 901 500.8 906.5C528.7 912 556.3 894 584.2 897.5C612 901 640 926 667.8 929.5C695.7 933 723.3 915 751.2 900.7C779 886.3 807 875.7 834.8 875.7C862.7 875.7 890.3 886.3 918.2 872C946 857.7 974 818.3 1001.8 807.7C1029.7 797 1057.3 815 1085.2 820.3C1113 825.7 1141 818.3 1168.8 820C1196.7 821.7 1224.3 832.3 1252.2 836C1280 839.7 1308 836.3 1335.8 845.3C1363.7 854.3 1391.3 875.7 1419.2 879.2C1447 882.7 1475 868.3 1502.8 864.8C1530.7 861.3 1558.3 868.7 1586.2 857.8C1614 847 1642 818 1669.8 816.2C1697.7 814.3 1725.3 839.7 1753.2 845.2C1781 850.7 1809 836.3 1836.8 841.7C1864.7 847 1892.3 872 1906.2 884.5L1920 897L1920 852L1906.2 839.5C1892.3 827 1864.7 802 1836.8 793C1809 784 1781 791 1753.2 782C1725.3 773 1697.7 748 1669.8 751.7C1642 755.3 1614 787.7 1586.2 803.8C1558.3 820 1530.7 820 1502.8 825.3C1475 830.7 1447 841.3 1419.2 834.2C1391.3 827 1363.7 802 1335.8 793C1308 784 1280 791 1252.2 785.5C1224.3 780 1196.7 762 1168.8 762C1141 762 1113 780 1085.2 774.7C1057.3 769.3 1029.7 740.7 1001.8 751.5C974 762.3 946 812.7 918.2 827C890.3 841.3 862.7 819.7 834.8 819.7C807 819.7 779 841.3 751.2 855.8C723.3 870.3 695.7 877.7 667.8 872.3C640 867 612 849 584.2 849C556.3 849 528.7 867 500.8 863.3C473 859.7 445 834.3 417.2 825.3C389.3 816.3 361.7 823.7 333.8 836.3C306 849 278 867 250.2 870.5C222.3 874 194.7 863 166.8 837.7C139 812.3 111 772.7 83.2 769.2C55.3 765.7 27.7 798.3 13.8 814.7L0 831Z" fill="#f7fbfc"></path><path d="M0 1081L13.8 1081C27.7 1081 55.3 1081 83.2 1081C111 1081 139 1081 166.8 1081C194.7 1081 222.3 1081 250.2 1081C278 1081 306 1081 333.8 1081C361.7 1081 389.3 1081 417.2 1081C445 1081 473 1081 500.8 1081C528.7 1081 556.3 1081 584.2 1081C612 1081 640 1081 667.8 1081C695.7 1081 723.3 1081 751.2 1081C779 1081 807 1081 834.8 1081C862.7 1081 890.3 1081 918.2 1081C946 1081 974 1081 1001.8 1081C1029.7 1081 1057.3 1081 1085.2 1081C1113 1081 1141 1081 1168.8 1081C1196.7 1081 1224.3 1081 1252.2 1081C1280 1081 1308 1081 1335.8 1081C1363.7 1081 1391.3 1081 1419.2 1081C1447 1081 1475 1081 1502.8 1081C1530.7 1081 1558.3 1081 1586.2 1081C1614 1081 1642 1081 1669.8 1081C1697.7 1081 1725.3 1081 1753.2 1081C1781 1081 1809 1081 1836.8 1081C1864.7 1081 1892.3 1081 1906.2 1081L1920 1081L1920 895L1906.2 882.5C1892.3 870 1864.7 845 1836.8 839.7C1809 834.3 1781 848.7 1753.2 843.2C1725.3 837.7 1697.7 812.3 1669.8 814.2C1642 816 1614 845 1586.2 855.8C1558.3 866.7 1530.7 859.3 1502.8 862.8C1475 866.3 1447 880.7 1419.2 877.2C1391.3 873.7 1363.7 852.3 1335.8 843.3C1308 834.3 1280 837.7 1252.2 834C1224.3 830.3 1196.7 819.7 1168.8 818C1141 816.3 1113 823.7 1085.2 818.3C1057.3 813 1029.7 795 1001.8 805.7C974 816.3 946 855.7 918.2 870C890.3 884.3 862.7 873.7 834.8 873.7C807 873.7 779 884.3 751.2 898.7C723.3 913 695.7 931 667.8 927.5C640 924 612 899 584.2 895.5C556.3 892 528.7 910 500.8 904.5C473 899 445 870 417.2 859.2C389.3 848.3 361.7 855.7 333.8 870.2C306 884.7 278 906.3 250.2 915.3C222.3 924.3 194.7 920.7 166.8 897.2C139 873.7 111 830.3 83.2 825C55.3 819.7 27.7 852.3 13.8 868.7L0 885Z" fill="#ffffff"></path></svg>